<mxfile host="app.diagrams.net" modified="2022-09-29T11:19:14.644Z" agent="5.0 (Windows NT 10.0; Win64; x64) AppleWebKit/537.36 (KHTML, like Gecko) Chrome/105.0.0.0 Safari/537.36" etag="nb-urLjnpg9leIvuMp2a" version="20.3.7" type="github">
  <diagram id="6a731a19-8d31-9384-78a2-239565b7b9f0" name="Page-1">
    <mxGraphModel dx="2844" dy="1544" grid="1" gridSize="10" guides="1" tooltips="1" connect="1" arrows="1" fold="1" page="1" pageScale="1" pageWidth="1169" pageHeight="827" background="none" math="0" shadow="0">
      <root>
        <mxCell id="0" />
        <mxCell id="1" parent="0" />
        <mxCell id="2jgekJnq7fsNUiKEL2tU-1545" style="rounded=0;orthogonalLoop=1;jettySize=auto;html=1;exitX=1;exitY=0.5;exitDx=0;exitDy=0;fontSize=35;fontColor=#000000;strokeWidth=7;fillColor=#dae8fc;strokeColor=#6c8ebf;edgeStyle=orthogonalEdgeStyle;curved=1;" edge="1" parent="1" source="2jgekJnq7fsNUiKEL2tU-1546" target="2jgekJnq7fsNUiKEL2tU-1547">
          <mxGeometry relative="1" as="geometry">
            <mxPoint x="1850" y="762" as="targetPoint" />
          </mxGeometry>
        </mxCell>
        <mxCell id="2jgekJnq7fsNUiKEL2tU-1546" value="&lt;font style=&quot;font-weight: 700; font-size: 30px;&quot;&gt;&lt;span style=&quot;-webkit-tap-highlight-color: rgba(0, 0, 0, 0); box-sizing: border-box; font-family: &amp;quot;Avenir,Avenir Next,Segoe UI,Helvetica,Arial,sans-serif&amp;quot;, Avenir, &amp;quot;Avenir Next&amp;quot;, &amp;quot;Segoe UI&amp;quot;, Helvetica, Arial, &amp;quot;sans-serif&amp;quot;;&quot; data-token-id=&quot;0&quot; class=&quot;react-editor-token react-editor-text-token&quot;&gt;Барбара&lt;/span&gt;&lt;span style=&quot;-webkit-tap-highlight-color: rgba(0, 0, 0, 0); box-sizing: border-box; font-family: &amp;quot;Avenir,Avenir Next,Segoe UI,Helvetica,Arial,sans-serif&amp;quot;, Avenir, &amp;quot;Avenir Next&amp;quot;, &amp;quot;Segoe UI&amp;quot;, Helvetica, Arial, &amp;quot;sans-serif&amp;quot;;&quot; data-token-id=&quot;1&quot; class=&quot;react-editor-token react-editor-whitespace-token&quot;&gt;&amp;nbsp;&lt;/span&gt;&lt;span style=&quot;-webkit-tap-highlight-color: rgba(0, 0, 0, 0); box-sizing: border-box; font-family: &amp;quot;Avenir,Avenir Next,Segoe UI,Helvetica,Arial,sans-serif&amp;quot;, Avenir, &amp;quot;Avenir Next&amp;quot;, &amp;quot;Segoe UI&amp;quot;, Helvetica, Arial, &amp;quot;sans-serif&amp;quot;;&quot; data-token-id=&quot;2&quot; class=&quot;react-editor-token react-editor-text-token&quot;&gt;Оклі&lt;/span&gt;&lt;span style=&quot;-webkit-tap-highlight-color: rgba(0, 0, 0, 0); box-sizing: border-box; font-family: &amp;quot;Avenir,Avenir Next,Segoe UI,Helvetica,Arial,sans-serif&amp;quot;, Avenir, &amp;quot;Avenir Next&amp;quot;, &amp;quot;Segoe UI&amp;quot;, Helvetica, Arial, &amp;quot;sans-serif&amp;quot;;&quot; data-token-id=&quot;3&quot; class=&quot;react-editor-token react-editor-whitespace-token&quot;&gt;&amp;nbsp;&lt;/span&gt;&lt;span style=&quot;-webkit-tap-highlight-color: rgba(0, 0, 0, 0); box-sizing: border-box; font-family: &amp;quot;Avenir,Avenir Next,Segoe UI,Helvetica,Arial,sans-serif&amp;quot;, Avenir, &amp;quot;Avenir Next&amp;quot;, &amp;quot;Segoe UI&amp;quot;, Helvetica, Arial, &amp;quot;sans-serif&amp;quot;;&quot; data-token-id=&quot;4&quot; class=&quot;react-editor-token react-editor-text-token&quot;&gt;Навчитися&lt;/span&gt;&lt;/font&gt;&lt;div style=&quot;font-weight: 700; -webkit-tap-highlight-color: rgba(0, 0, 0, 0); box-sizing: border-box; font-family: &amp;quot;Avenir,Avenir Next,Segoe UI,Helvetica,Arial,sans-serif&amp;quot;, Avenir, &amp;quot;Avenir Next&amp;quot;, &amp;quot;Segoe UI&amp;quot;, Helvetica, Arial, &amp;quot;sans-serif&amp;quot;; width: 319.469px; display: flex; font-size: 30px;&quot; data-token-id=&quot;5&quot; class=&quot;react-editor-token react-editor-carriagereturn-token&quot;&gt;&lt;/div&gt;&lt;span style=&quot;font-weight: 700; -webkit-tap-highlight-color: rgba(0, 0, 0, 0); box-sizing: border-box; font-family: &amp;quot;Avenir,Avenir Next,Segoe UI,Helvetica,Arial,sans-serif&amp;quot;, Avenir, &amp;quot;Avenir Next&amp;quot;, &amp;quot;Segoe UI&amp;quot;, Helvetica, Arial, &amp;quot;sans-serif&amp;quot;; font-size: 30px;&quot; data-token-id=&quot;6&quot; class=&quot;react-editor-token react-editor-text-token&quot;&gt;&lt;font style=&quot;font-size: 30px;&quot;&gt;вчитися&lt;/font&gt;&lt;/span&gt;" style="rounded=1;whiteSpace=wrap;html=1;labelBackgroundColor=none;fontSize=35;fillColor=#e1d5e7;strokeColor=#9673a6;" vertex="1" parent="1">
          <mxGeometry x="890" y="705.75" width="470" height="111.5" as="geometry" />
        </mxCell>
        <mxCell id="2jgekJnq7fsNUiKEL2tU-1547" value="&lt;font style=&quot;font-size: 30px;&quot;&gt;Глава 1&lt;br&gt;&amp;nbsp;ВІДЧИНЯЄМО ДВЕРІ&lt;/font&gt;" style="rounded=1;whiteSpace=wrap;html=1;labelBackgroundColor=none;fontSize=35;fillColor=#dae8fc;strokeColor=#6c8ebf;" vertex="1" parent="1">
          <mxGeometry x="1410" y="1050" width="330" height="90" as="geometry" />
        </mxCell>
      </root>
    </mxGraphModel>
  </diagram>
</mxfile>
